<svg xmlns="http://www.w3.org/2000/svg" width="108.419" height="820.502" viewBox="0 0 108.419 820.502">
  <g id="Group_5732" data-name="Group 5732" transform="translate(-246.75 1047.757) rotate(-90)">
    <g id="Group_439" data-name="Group 439" transform="translate(227.77 247.25)">
      <g id="Group_441" data-name="Group 441" transform="translate(0 0)">
        <path id="Path_1205" data-name="Path 1205" d="M331.585,255.057h-8.072l-41.853,75.178-42.892-75.178H230.7L227.77,358.744h17.764l.283-58.309,32.177,59.176h6.31L316.165,299.4l.455,59.348h17.906Z" transform="translate(-227.77 -253.073)" fill="#fff" stroke="#d3dfdd" stroke-width="1"/>
        <path id="Path_1206" data-name="Path 1206" d="M300.059,255.272v38.5l18.205.474V272h48.9V255.272Zm18.205,86.491V323.37l-18.205-.471v35.623h67.107V341.763Z" transform="translate(-151.873 -252.847)" fill="#fff" stroke="#d3dfdd" stroke-width="1"/>
        <path id="Path_1207" data-name="Path 1207" d="M402.222,255.272v43.771l18.219.457V255.272Zm0,72.9v30.351h18.219V328.626Zm68.585,1.716v28.635h18.205v-28.18Zm0-74.471v45.362l18.205.455V255.414Z" transform="translate(-44.613 -252.847)" fill="#fff" stroke="#d3dfdd" stroke-width="1"/>
        <path id="Path_1208" data-name="Path 1208" d="M634.144,299.939c-14.554-5.287-20.124-9.393-20.124-16,0-7.207,4.987-13.218,15.86-13.218,7.929,0,17.024,3.526,23.051,6.892l5.869-16.159c-6.609-3.807-17.465-7.048-28.48-7.048-22.044,0-34.664,14.4-34.664,29.957,0,12.336,6.908,21.887,27.016,29.234,18.662,6.908,22.485,11.014,22.485,17.905,0,6.626-5.6,12.65-17.781,12.65-9.251,0-19.525-3.524-28.052-9.266l-6.31,16.457c9.409,5.727,21.587,9.833,33.78,9.833,23.051,0,36.992-11.311,36.992-29.674,0-13.5-6.592-22.594-29.644-31.562" transform="translate(155.7 -253.757)" fill="#fff" stroke="#d3dfdd" stroke-width="1"/>
        <path id="Path_1211" data-name="Path 1211" d="M901.56,291.482v19.669l-41.019-1.023-8.78-.221-46.086-1.164-18.347-.455-41.162-1.039-21.319-.535-58.342-1.464-21.745-.549-40-1.009-18.2-.455L536.2,301.978l-18.219-.457-67.343-1.7-18.361-.457-105.514-2.642-18.2-.472-16.584-.41V276.157l16.584.408,18.2.474,105.514,2.642,18.361.472,67.343,1.685,18.219.455,50.366,1.275,18.2.457,36.142.912,19.7.488,70.961,1.777,19.511.5,36.253.9,18.347.473,55.872,1.4,14.3.361,5.27.127Z" transform="translate(-160.368 -230.92)" fill="#fff" stroke="#d3dfdd" stroke-width="1"/>
        <path id="Path_1212" data-name="Path 1212" d="M343.58,255.372v16.742h34.506v86.505h18.361V272.113H430.37V255.372Z" transform="translate(-106.181 -252.742)" fill="#fff" stroke="#d3dfdd" stroke-width="1"/>
        <path id="Path_1213" data-name="Path 1213" d="M482.063,303.873c1.683-19.228,16.176-33.342,35.34-33.342,20.029,0,34.567,15,35.48,35.119l19.478.5h.1c-.631-30.209-23.633-52.065-55.2-52.065-29.594,0-52.867,21.415-54.927,49.3-.033.518-.064,1.039-.094,1.574-.033.818-.047,1.636-.047,2.454v.693c.014,1.054.047,2.107.125,3.147.031.519.078,1.054.127,1.572a54.713,54.713,0,0,0,1.949,10.276c.174.535.33,1.068.5,1.588.346,1.085.724,2.14,1.148,3.177.441,1.087.9,2.14,1.416,3.179.252.535.535,1.07.8,1.605,8.937,17.008,27,28.053,49,28.053,20.9,0,38.3-10.038,47.707-25.63l-18.835-.471-3.9-.1a35.164,35.164,0,0,1-50.743-1.273q-.71-.781-1.37-1.605a30.6,30.6,0,0,1-2.329-3.21,33.769,33.769,0,0,1-1.81-3.194c-.267-.518-.519-1.056-.754-1.588a37.959,37.959,0,0,1-2.944-10.307c-.078-.519-.141-1.054-.189-1.589a29.46,29.46,0,0,1-.2-3.132v-.015c-.016-.3-.016-.582-.016-.9,0-.754.016-1.511.064-2.249.031-.535.061-1.056.125-1.574" transform="translate(18.348 -254.089)" fill="#fff" stroke="#d3dfdd" stroke-width="1"/>
        <path id="Path_1214" data-name="Path 1214" d="M572.548,255.272H533.62V358.521h38.927c19.276,0,35.623-8.278,45.379-21.462l-11.094-.283-8.78-.222-5.868-.141a37.064,37.064,0,0,1-19.495,5.35H551.967V272h20.722c20.706,0,35.529,14.837,35.529,35.1,0,.2,0,.392-.016.6l13.942.346,5.27.127.33.014c.016-.455.016-.929.016-1.384,0-29.943-23.209-51.53-55.212-51.53" transform="translate(93.341 -252.847)" fill="#fff" stroke="#d3dfdd" stroke-width="1"/>
      </g>
    </g>
  </g>
</svg>
