<svg xmlns="http://www.w3.org/2000/svg" width="1141.544" height="150.501" viewBox="0 0 1141.544 150.501">
  <g id="Group_6396" data-name="Group 6396" transform="translate(-227.255 -268.005)" opacity="0.05">
    <g id="Group_439" data-name="Group 439" transform="translate(227.77 268.505)">
      <g id="Group_441" data-name="Group 441" transform="translate(0 0)">
        <path id="Path_1205" data-name="Path 1205" d="M372.255,255.057H361.02l-58.249,104.63-59.7-104.63H231.844L227.77,399.365h24.724l.393-81.152,44.783,82.359h8.781L350.8,316.766l.633,82.6h24.92Z" transform="translate(-227.77 -252.296)" fill="#b0c5c1" stroke="#b0c5c1" stroke-width="1"/>
        <path id="Path_1206" data-name="Path 1206" d="M300.059,255.272v53.585l25.337.659V278.549h68.06V255.272ZM325.4,375.647v-25.6l-25.337-.656V398.97h93.4V375.647Z" transform="translate(-93.82 -251.897)" fill="#b0c5c1" stroke="#b0c5c1" stroke-width="1"/>
        <path id="Path_1207" data-name="Path 1207" d="M402.222,255.272v60.919l25.357.636V255.272Zm0,101.454v42.241h25.357v-41.6Zm95.454,2.388v39.853h25.338v-39.22Zm0-103.645V318.6l25.338.633V255.469Z" transform="translate(95.484 -251.897)" fill="#b0c5c1" stroke="#b0c5c1" stroke-width="1"/>
        <path id="Path_1208" data-name="Path 1208" d="M650.257,317.778C630,310.42,622.25,304.705,622.25,295.508c0-10.031,6.941-18.4,22.073-18.4,11.035,0,23.693,4.907,32.082,9.592l8.168-22.49c-9.2-5.3-24.308-9.809-39.637-9.809-30.68,0-48.243,20.036-48.243,41.693,0,17.169,9.614,30.461,37.6,40.686,25.973,9.614,31.294,15.329,31.294,24.92,0,9.221-7.8,17.606-24.747,17.606-12.875,0-27.174-4.9-39.042-12.9l-8.782,22.9C606.11,397.29,623.059,403,640.029,403c32.082,0,51.485-15.743,51.485-41.3,0-18.786-9.175-31.445-41.257-43.927" transform="translate(449.016 -253.504)" fill="#b0c5c1" stroke="#b0c5c1" stroke-width="1"/>
        <path id="Path_1211" data-name="Path 1211" d="M1140.374,297.486V324.86l-57.088-1.424-12.219-.308-64.14-1.62-25.534-.634L924.1,319.428l-29.671-.745-81.2-2.037-30.264-.765-55.664-1.4-25.337-.633-70.1-1.752-25.357-.636-93.726-2.365-25.554-.636-146.851-3.677-25.337-.657-23.081-.57V276.157l23.081.568,25.337.659,146.851,3.677,25.554.656,93.726,2.345,25.357.633,70.1,1.774,25.337.637,50.3,1.269,27.414.679,98.761,2.473,27.154.7,50.455,1.247,25.534.659,77.76,1.949,19.905.5,7.335.177Z" transform="translate(-108.812 -213.198)" fill="#b0c5c1" stroke="#b0c5c1" stroke-width="1"/>
        <path id="Path_1212" data-name="Path 1212" d="M343.58,255.372v23.3H391.6V399.067h25.554V278.672h47.214v-23.3Z" transform="translate(-13.178 -251.713)" fill="#b0c5c1" stroke="#b0c5c1" stroke-width="1"/>
        <path id="Path_1213" data-name="Path 1213" d="M489.848,323.376c2.342-26.761,22.512-46.4,49.185-46.4,27.876,0,48.109,20.87,49.379,48.877l27.109.7h.134c-.879-42.044-32.892-72.462-76.821-72.462-41.188,0-73.578,29.8-76.445,68.608-.046.722-.089,1.446-.131,2.191-.046,1.139-.066,2.277-.066,3.415v.964c.02,1.467.066,2.933.174,4.38.043.722.108,1.466.177,2.188a76.175,76.175,0,0,0,2.713,14.3c.243.744.46,1.486.7,2.211.482,1.509,1.007,2.979,1.6,4.422.614,1.512,1.25,2.978,1.972,4.425.351.745.744,1.49,1.116,2.234,12.439,23.671,37.579,39.043,68.191,39.043,29.083,0,53.3-13.971,66.4-35.67l-26.213-.656-5.429-.134a48.939,48.939,0,0,1-70.622-1.771q-.988-1.087-1.906-2.234a42.533,42.533,0,0,1-3.241-4.468,47.006,47.006,0,0,1-2.519-4.445c-.371-.722-.722-1.469-1.05-2.211a52.842,52.842,0,0,1-4.1-14.345c-.108-.722-.2-1.466-.263-2.211a41.015,41.015,0,0,1-.282-4.359v-.02c-.023-.416-.023-.81-.023-1.25,0-1.05.023-2.1.089-3.13.043-.744.085-1.469.174-2.191" transform="translate(206.604 -254.089)" fill="#b0c5c1" stroke="#b0c5c1" stroke-width="1"/>
        <path id="Path_1214" data-name="Path 1214" d="M587.8,255.272H533.62v143.7H587.8c26.828,0,49.579-11.52,63.156-29.871l-15.44-.394-12.219-.309-8.167-.2a51.583,51.583,0,0,1-27.132,7.446h-28.84v-97.1h28.84c28.818,0,49.447,20.65,49.447,48.857,0,.283,0,.545-.023.83l19.4.482,7.334.177.46.02c.023-.633.023-1.292.023-1.926,0-41.673-32.3-71.718-76.842-71.718" transform="translate(338.959 -251.897)" fill="#b0c5c1" stroke="#b0c5c1" stroke-width="1"/>
      </g>
    </g>
  </g>
</svg>
